<svg width="500" height="500" viewBox="0 0 500 500" fill="none" xmlns="http://www.w3.org/2000/svg">
<g clip-path="url(#clip0_2213_1895)">
<mask id="mask0_2213_1895" style="mask-type:alpha" maskUnits="userSpaceOnUse" x="0" y="0" width="500" height="500">
<circle cx="250" cy="250" r="250" fill="#D9D9D9"/>
</mask>
<g mask="url(#mask0_2213_1895)">
<ellipse cx="247.5" cy="252.5" rx="265.5" ry="259.5" fill="#211B59"/>
<g opacity="0.53" filter="url(#filter0_f_2213_1895)">
<circle cx="534.5" cy="-167.5" r="364.5" fill="#FEBFFF"/>
</g>
<g filter="url(#filter1_f_2213_1895)">
<circle cx="-52.5" cy="667.5" r="439.5" fill="#C9C8FA" fill-opacity="0.42"/>
</g>
<g filter="url(#filter2_d_2213_1895)">
<path d="M101.915 250V215.7H112.009C116.975 215.7 121.058 217.235 124.259 220.306C127.493 223.344 129.11 227.525 129.11 232.85C129.11 238.175 127.493 242.372 124.259 245.443C121.058 248.481 116.975 250 112.009 250H101.915ZM106.08 246.227H111.911C115.57 246.227 118.624 245.116 121.074 242.895C123.524 240.641 124.749 237.293 124.749 232.85C124.749 228.407 123.524 225.075 121.074 222.854C118.624 220.6 115.57 219.473 111.911 219.473H106.08V246.227ZM153.413 215.308L148.268 222.56H145.377L149.493 215.308H153.413ZM154.785 242.062H158.754C158.329 244.61 157.088 246.635 155.03 248.138C153.005 249.641 150.473 250.392 147.435 250.392C143.842 250.392 140.902 249.151 138.615 246.668C136.361 244.153 135.234 241.098 135.234 237.505C135.234 233.814 136.296 230.792 138.419 228.44C140.575 226.088 143.433 224.912 146.994 224.912C150.522 224.912 153.315 226.006 155.373 228.195C157.464 230.351 158.509 233.111 158.509 236.476C158.509 237.162 158.476 237.734 158.411 238.191H139.105C139.268 240.739 140.118 242.83 141.653 244.463C143.188 246.096 145.116 246.913 147.435 246.913C151.518 246.913 153.968 245.296 154.785 242.062ZM146.994 228.244C144.903 228.244 143.188 228.832 141.849 230.008C140.51 231.184 139.66 232.866 139.301 235.055H154.491C154.328 232.964 153.576 231.315 152.237 230.106C150.93 228.865 149.183 228.244 146.994 228.244ZM172.36 250L163.295 225.304H167.362L174.369 244.904L181.376 225.304H185.492L176.427 250H172.36ZM209.439 242.062H213.408C212.983 244.61 211.742 246.635 209.684 248.138C207.659 249.641 205.127 250.392 202.089 250.392C198.496 250.392 195.556 249.151 193.269 246.668C191.015 244.153 189.888 241.098 189.888 237.505C189.888 233.814 190.95 230.792 193.073 228.44C195.229 226.088 198.087 224.912 201.648 224.912C205.176 224.912 207.969 226.006 210.027 228.195C212.118 230.351 213.163 233.111 213.163 236.476C213.163 237.162 213.13 237.734 213.065 238.191H193.759C193.922 240.739 194.772 242.83 196.307 244.463C197.842 246.096 199.77 246.913 202.089 246.913C206.172 246.913 208.622 245.296 209.439 242.062ZM201.648 228.244C199.557 228.244 197.842 228.832 196.503 230.008C195.164 231.184 194.314 232.866 193.955 235.055H209.145C208.982 232.964 208.23 231.315 206.891 230.106C205.584 228.865 203.837 228.244 201.648 228.244ZM221.077 250V215.308H224.997V250H221.077ZM253.565 246.815C251.213 249.2 248.208 250.392 244.549 250.392C240.89 250.392 237.885 249.2 235.533 246.815C233.181 244.398 232.005 241.343 232.005 237.652C232.005 233.928 233.181 230.874 235.533 228.489C237.885 226.104 240.89 224.912 244.549 224.912C248.24 224.912 251.262 226.104 253.614 228.489C255.966 230.874 257.142 233.928 257.142 237.652C257.142 241.343 255.95 244.398 253.565 246.815ZM244.549 246.864C247.097 246.864 249.155 246.015 250.723 244.316C252.324 242.585 253.124 240.363 253.124 237.652C253.124 234.941 252.324 232.736 250.723 231.037C249.155 229.306 247.097 228.44 244.549 228.44C242.034 228.44 239.976 229.306 238.375 231.037C236.807 232.736 236.023 234.941 236.023 237.652C236.023 240.363 236.807 242.585 238.375 244.316C239.976 246.015 242.034 246.864 244.549 246.864ZM264.342 259.996V225.304H268.262V228.979C268.915 227.803 269.993 226.839 271.496 226.088C273.031 225.304 274.697 224.912 276.494 224.912C280.218 224.912 283.125 226.104 285.216 228.489C287.307 230.874 288.352 233.928 288.352 237.652C288.352 241.376 287.29 244.43 285.167 246.815C283.044 249.2 280.12 250.392 276.396 250.392C274.828 250.392 273.276 250.033 271.741 249.314C270.238 248.563 269.079 247.599 268.262 246.423V259.996H264.342ZM276.102 246.864C278.585 246.864 280.577 246.031 282.08 244.365C283.583 242.699 284.334 240.461 284.334 237.652C284.334 234.843 283.583 232.605 282.08 230.939C280.577 229.273 278.585 228.44 276.102 228.44C273.652 228.44 271.676 229.289 270.173 230.988C268.67 232.654 267.919 234.875 267.919 237.652C267.919 240.429 268.67 242.666 270.173 244.365C271.676 246.031 273.652 246.864 276.102 246.864ZM295.545 259.996V225.304H299.465V228.979C300.118 227.803 301.196 226.839 302.699 226.088C304.234 225.304 305.9 224.912 307.697 224.912C311.421 224.912 314.328 226.104 316.419 228.489C318.51 230.874 319.555 233.928 319.555 237.652C319.555 241.376 318.493 244.43 316.37 246.815C314.247 249.2 311.323 250.392 307.599 250.392C306.031 250.392 304.479 250.033 302.944 249.314C301.441 248.563 300.282 247.599 299.465 246.423V259.996H295.545ZM307.305 246.864C309.788 246.864 311.78 246.031 313.283 244.365C314.786 242.699 315.537 240.461 315.537 237.652C315.537 234.843 314.786 232.605 313.283 230.939C311.78 229.273 309.788 228.44 307.305 228.44C304.855 228.44 302.879 229.289 301.376 230.988C299.873 232.654 299.122 234.875 299.122 237.652C299.122 240.429 299.873 242.666 301.376 244.365C302.879 246.031 304.855 246.864 307.305 246.864ZM344.974 242.062H348.943C348.518 244.61 347.277 246.635 345.219 248.138C343.194 249.641 340.662 250.392 337.624 250.392C334.031 250.392 331.091 249.151 328.804 246.668C326.55 244.153 325.423 241.098 325.423 237.505C325.423 233.814 326.485 230.792 328.608 228.44C330.764 226.088 333.622 224.912 337.183 224.912C340.711 224.912 343.504 226.006 345.562 228.195C347.653 230.351 348.698 233.111 348.698 236.476C348.698 237.162 348.665 237.734 348.6 238.191H329.294C329.457 240.739 330.307 242.83 331.842 244.463C333.377 246.096 335.305 246.913 337.624 246.913C341.707 246.913 344.157 245.296 344.974 242.062ZM337.183 228.244C335.092 228.244 333.377 228.832 332.038 230.008C330.699 231.184 329.849 232.866 329.49 235.055H344.68C344.517 232.964 343.765 231.315 342.426 230.106C341.119 228.865 339.372 228.244 337.183 228.244ZM377.345 225.304V250H373.425V245.247C372.805 246.913 371.776 248.187 370.338 249.069C368.901 249.951 367.219 250.392 365.291 250.392C362.515 250.392 360.277 249.477 358.578 247.648C356.912 245.819 356.079 243.401 356.079 240.396V225.304H359.999V239.759C359.999 241.882 360.555 243.597 361.665 244.904C362.809 246.178 364.311 246.815 366.173 246.815C368.297 246.815 370.028 246.047 371.367 244.512C372.739 242.977 373.425 241.017 373.425 238.632V225.304H377.345ZM398.569 228.783H394.747C392.427 228.783 390.843 229.632 389.994 231.331C389.144 232.997 388.72 235.463 388.72 238.73V250H384.8V225.304H388.72V230.449C389.275 228.62 390.026 227.248 390.974 226.333C391.954 225.386 393.309 224.912 395.041 224.912H398.569V228.783ZM126.635 308V273.7H138.885C142.151 273.7 144.716 274.484 146.578 276.052C148.44 277.587 149.371 279.743 149.371 282.52C149.371 284.023 148.913 285.395 147.999 286.636C147.117 287.845 146.055 288.71 144.814 289.233C146.676 289.854 148.146 290.899 149.224 292.369C150.334 293.839 150.89 295.717 150.89 298.004C150.89 301.107 149.893 303.557 147.901 305.354C145.941 307.118 143.197 308 139.669 308H126.635ZM130.8 287.91H138.787C143.066 287.91 145.206 286.146 145.206 282.618C145.206 279.123 143.066 277.375 138.787 277.375H130.8V287.91ZM130.8 304.227H138.983C144.079 304.227 146.627 302.136 146.627 297.955C146.627 293.741 144.079 291.634 138.983 291.634H130.8V304.227ZM158.264 308V273.308H162.184V308H158.264ZM190.752 304.815C188.4 307.2 185.395 308.392 181.736 308.392C178.078 308.392 175.072 307.2 172.72 304.815C170.368 302.398 169.192 299.343 169.192 295.652C169.192 291.928 170.368 288.874 172.72 286.489C175.072 284.104 178.078 282.912 181.736 282.912C185.428 282.912 188.449 284.104 190.801 286.489C193.153 288.874 194.329 291.928 194.329 295.652C194.329 299.343 193.137 302.398 190.752 304.815ZM181.736 304.864C184.284 304.864 186.342 304.015 187.91 302.316C189.511 300.585 190.311 298.363 190.311 295.652C190.311 292.941 189.511 290.736 187.91 289.037C186.342 287.306 184.284 286.44 181.736 286.44C179.221 286.44 177.163 287.306 175.562 289.037C173.994 290.736 173.21 292.941 173.21 295.652C173.21 298.363 173.994 300.585 175.562 302.316C177.163 304.015 179.221 304.864 181.736 304.864ZM212.209 308.392C208.485 308.392 205.545 307.151 203.389 304.668C201.266 302.153 200.204 299.147 200.204 295.652C200.204 292.157 201.266 289.168 203.389 286.685C205.545 284.17 208.485 282.912 212.209 282.912C215.084 282.912 217.583 283.696 219.706 285.264C221.829 286.832 223.071 288.955 223.43 291.634H219.559C219.298 290.131 218.481 288.89 217.109 287.91C215.737 286.93 214.12 286.44 212.258 286.44C209.677 286.44 207.701 287.306 206.329 289.037C204.957 290.768 204.271 292.973 204.271 295.652C204.271 298.331 204.957 300.536 206.329 302.267C207.734 303.998 209.71 304.864 212.258 304.864C214.12 304.864 215.688 304.439 216.962 303.59C218.236 302.708 219.102 301.516 219.559 300.013H223.381C222.956 302.561 221.764 304.603 219.804 306.138C217.844 307.641 215.312 308.392 212.209 308.392ZM246.86 308L237.256 295.652L234.022 298.592V308H230.053V273.308H234.022V293.643L245.831 283.304H250.829L240.245 292.957L251.809 308H246.86ZM266.767 308.392C263.043 308.392 260.103 307.151 257.947 304.668C255.824 302.153 254.762 299.147 254.762 295.652C254.762 292.157 255.824 289.168 257.947 286.685C260.103 284.17 263.043 282.912 266.767 282.912C269.642 282.912 272.141 283.696 274.264 285.264C276.388 286.832 277.629 288.955 277.988 291.634H274.117C273.856 290.131 273.039 288.89 271.667 287.91C270.295 286.93 268.678 286.44 266.816 286.44C264.236 286.44 262.259 287.306 260.887 289.037C259.515 290.768 258.829 292.973 258.829 295.652C258.829 298.331 259.515 300.536 260.887 302.267C262.292 303.998 264.268 304.864 266.816 304.864C268.678 304.864 270.246 304.439 271.52 303.59C272.794 302.708 273.66 301.516 274.117 300.013H277.939C277.515 302.561 276.322 304.603 274.362 306.138C272.402 307.641 269.871 308.392 266.767 308.392ZM284.372 308V273.308H288.292V288.057C288.912 286.391 289.941 285.117 291.379 284.235C292.816 283.353 294.498 282.912 296.426 282.912C299.202 282.912 301.424 283.827 303.09 285.656C304.788 287.485 305.638 289.903 305.638 292.908V308H301.718V293.545C301.718 291.422 301.146 289.723 300.003 288.449C298.892 287.142 297.406 286.489 295.544 286.489C293.42 286.489 291.673 287.257 290.301 288.792C288.961 290.327 288.292 292.287 288.292 294.672V308H284.372ZM323.152 282.912C326.19 282.912 328.705 283.745 330.698 285.411C332.723 287.044 333.736 289.168 333.736 291.781V308H329.914V303.737C329.26 305.142 328.166 306.269 326.631 307.118C325.095 307.967 323.364 308.392 321.437 308.392C318.954 308.392 316.912 307.706 315.312 306.334C313.711 304.929 312.911 303.149 312.911 300.993C312.911 298.445 313.727 296.485 315.361 295.113C317.027 293.741 319.493 293.055 322.76 293.055H328.493C329.44 293.055 329.914 292.63 329.914 291.781V291.732C329.914 290.066 329.277 288.743 328.003 287.763C326.729 286.75 325.128 286.244 323.201 286.244C321.404 286.244 319.885 286.734 318.644 287.714C317.402 288.694 316.716 289.87 316.586 291.242H312.911C313.139 288.857 314.217 286.881 316.145 285.313C318.105 283.712 320.44 282.912 323.152 282.912ZM322.025 305.06C324.507 305.06 326.435 304.341 327.807 302.904C329.211 301.434 329.914 299.425 329.914 296.877V295.995H323.005C318.954 295.995 316.929 297.645 316.929 300.944C316.929 302.153 317.402 303.149 318.35 303.933C319.33 304.684 320.555 305.06 322.025 305.06ZM340.556 273.112H345.113V278.894H340.556V273.112ZM340.899 308V283.304H344.819V308H340.899ZM352.524 308V283.304H356.444V288.057C357.065 286.391 358.094 285.117 359.531 284.235C360.968 283.353 362.651 282.912 364.578 282.912C367.355 282.912 369.576 283.827 371.242 285.656C372.941 287.485 373.79 289.903 373.79 292.908V308H369.87V293.545C369.87 291.422 369.298 289.723 368.155 288.449C367.044 287.142 365.558 286.489 363.696 286.489C361.573 286.489 359.825 287.257 358.453 288.792C357.114 290.327 356.444 292.287 356.444 294.672V308H352.524Z" fill="white"/>
</g>
<path d="M83.7896 382.936C84.501 383.81 84.9128 384.782 85.025 385.853C85.1263 386.911 85.0052 387.915 84.6616 388.866L91.1319 383.594L92.2483 384.965L77.4532 397.02L76.4518 395.79L78.4876 394.131C77.4899 394.251 76.5049 394.126 75.5327 393.755C74.547 393.396 73.7313 392.819 73.0855 392.026C72.4945 391.3 72.1073 390.509 71.9239 389.653C71.727 388.807 71.7033 387.954 71.8528 387.095C72.0022 386.235 72.3077 385.416 72.7691 384.638C73.2062 383.857 73.7741 383.182 74.4729 382.612C75.4539 381.813 76.5251 381.276 77.6866 381C78.8237 380.722 79.9308 380.737 81.0081 381.044C82.0854 381.351 83.0125 381.982 83.7896 382.936ZM82.8921 384.305C82.4215 383.727 81.8859 383.302 81.2853 383.031C80.6713 382.771 80.0314 382.644 79.3656 382.65C78.6889 382.643 78.0308 382.754 77.3913 382.984C76.7384 383.226 76.1432 383.565 75.6057 384.003C75.0413 384.463 74.5858 385.002 74.2394 385.62C73.882 386.224 73.6562 386.866 73.562 387.547C73.4678 388.227 73.498 388.895 73.6526 389.552C73.8072 390.209 74.1089 390.812 74.5576 391.363C74.8422 391.713 75.2049 392.021 75.6457 392.288C76.0865 392.555 76.5769 392.759 77.1167 392.9C77.6322 393.039 78.1375 393.097 78.6327 393.074C79.1278 393.051 79.5719 392.923 79.9651 392.693L83.1902 390.065C83.5123 389.445 83.7271 388.789 83.8348 388.098C83.9289 387.417 83.9055 386.743 83.7643 386.076C83.5987 385.406 83.308 384.815 82.8921 384.305Z" fill="white"/>
<path d="M74.5078 377.706C73.8092 378.189 73.0724 378.404 72.2975 378.349C71.5084 378.305 70.7369 378.027 69.9832 377.516C69.2053 377 68.4961 376.278 67.8556 375.352C67.4811 374.81 67.1346 374.217 66.8162 373.573C66.4977 372.929 66.2663 372.32 66.122 371.746L65.1811 372.396C64.2401 373.047 63.6838 373.842 63.5121 374.783C63.3404 375.724 63.5945 376.686 64.2745 377.67C64.6884 378.269 65.2114 378.782 65.8435 379.209C66.4515 379.631 67.1862 380.008 68.0475 380.34L67.4053 381.606C66.4038 381.224 65.5404 380.767 64.8152 380.236C64.0757 379.714 63.4546 379.09 62.9521 378.363C62.0061 376.994 61.6492 375.639 61.8815 374.298C62.1137 372.958 62.9213 371.809 64.3043 370.853L69.4581 367.289C69.6577 367.151 69.7778 367.005 69.8185 366.85C69.8449 366.706 69.8012 366.536 69.6873 366.34L70.8421 365.542C70.9648 365.689 71.0727 365.814 71.1658 365.919C71.2589 366.023 71.318 366.108 71.3431 366.175C71.5752 366.542 71.6484 366.891 71.5627 367.225C71.4769 367.558 71.3178 367.816 71.0853 367.997L70.2874 368.581C71.2739 368.636 72.2212 368.94 73.1295 369.492C74.0235 370.054 74.7563 370.748 75.3278 371.576C75.8206 372.288 76.1192 373.041 76.2239 373.832C76.3044 374.62 76.2014 375.355 75.9148 376.038C75.6041 376.716 75.1351 377.272 74.5078 377.706ZM70.2044 369.65C69.8964 369.631 69.6202 369.643 69.3757 369.685C69.1313 369.728 68.9378 369.798 68.7952 369.897L67.1699 371.021C67.3196 371.634 67.5269 372.239 67.7917 372.835C68.0467 373.418 68.3564 373.973 68.721 374.5C69.4404 375.541 70.2285 376.24 71.0854 376.595C71.9423 376.951 72.7272 376.883 73.44 376.39C73.8535 376.104 74.1716 375.726 74.3945 375.256C74.6031 374.795 74.6857 374.274 74.6423 373.693C74.5846 373.122 74.3636 372.558 73.9793 372.002C73.4965 371.304 72.9126 370.748 72.2279 370.337C71.5333 369.911 70.8588 369.682 70.2044 369.65Z" fill="white"/>
<path d="M54.5259 361.601C55.1575 362.597 55.9717 363.323 56.9683 363.779C57.9561 364.22 59.0123 364.318 60.137 364.074L67.379 359.77L68.2817 361.291L56.6364 368.21L55.7868 366.779L58.5807 365.119C57.5222 365.204 56.5449 365.069 55.6489 364.714C54.744 364.344 54.0405 363.805 53.5383 363.095C53.4349 362.955 53.3523 362.833 53.2903 362.728C53.2195 362.609 53.1694 362.508 53.1401 362.424L54.5259 361.601Z" fill="white"/>
<path d="M59.2354 344.311C59.6803 345.193 59.9275 346.087 59.9771 346.994C60.0035 347.893 59.8631 348.77 59.556 349.624C59.2411 350.462 58.7825 351.227 58.1803 351.92C57.5703 352.596 56.8398 353.149 55.9886 353.579C54.8435 354.157 53.6701 354.428 52.4686 354.394C51.2671 354.359 50.1576 354.026 49.14 353.394C48.1225 352.762 47.3132 351.85 46.7123 350.658C46.1426 349.529 45.9023 348.398 45.9914 347.265C46.0651 346.141 46.4376 345.147 47.1089 344.284L48.369 345.571C47.9217 346.223 47.6839 346.945 47.6556 347.736C47.6041 348.519 47.7656 349.282 48.1402 350.025C48.546 350.83 49.1256 351.46 49.879 351.915C50.6324 352.369 51.4742 352.614 52.4045 352.65C53.3269 352.67 54.2524 352.445 55.1809 351.977C56.0939 351.516 56.8204 350.897 57.3603 350.12C57.9002 349.343 58.2267 348.508 58.3399 347.616C58.4377 346.732 58.2836 345.888 57.8778 345.083C57.6124 344.557 57.266 344.101 56.8383 343.715C56.4029 343.313 55.9407 343.012 55.4517 342.812C54.9394 342.605 54.4663 342.533 54.0325 342.597L53.7124 340.807C54.3943 340.735 55.0961 340.837 55.8179 341.113C56.5164 341.382 57.1689 341.791 57.7753 342.339C58.3585 342.88 58.8452 343.537 59.2354 344.311Z" fill="white"/>
<path d="M52.7963 329.913C53.1638 330.812 53.3367 331.715 53.3149 332.623C53.2705 333.521 53.0664 334.373 52.7026 335.177C52.3163 335.972 51.8004 336.68 51.1552 337.3C50.4939 337.926 49.7301 338.417 48.8639 338.772C47.9656 339.139 47.0691 339.328 46.1744 339.339C45.2637 339.356 44.3967 339.205 43.5735 338.887C42.7342 338.575 41.9919 338.111 41.3465 337.495C40.6785 336.869 40.1608 336.107 39.7932 335.209C39.4256 334.31 39.264 333.412 39.3084 332.513C39.3368 331.622 39.5409 330.77 39.9207 329.959C40.2845 329.155 40.7971 328.439 41.4584 327.812C42.1036 327.192 42.8754 326.698 43.7737 326.331C44.6399 325.976 45.5284 325.79 46.4391 325.773C47.3338 325.763 48.2008 325.914 49.04 326.225C49.8567 326.528 50.5991 326.992 51.267 327.617C51.9124 328.234 52.4221 328.999 52.7963 329.913ZM48.2086 337.101C49.139 336.72 49.9071 336.172 50.513 335.456C51.0963 334.73 51.4713 333.93 51.6383 333.056C51.7891 332.189 51.6939 331.339 51.3526 330.504C51.0113 329.67 50.4749 329 49.7435 328.494C49.0121 327.988 48.1761 327.684 47.2355 327.582C46.2788 327.487 45.3433 327.627 44.429 328.001C43.4986 328.382 42.7338 328.938 42.1344 329.671C41.5351 330.403 41.152 331.206 40.9851 332.08C40.8182 332.954 40.9054 333.808 41.2467 334.642C41.5881 335.476 42.1324 336.143 42.8799 336.642C43.6207 337.125 44.4615 337.418 45.4021 337.52C46.3267 337.628 47.2622 337.489 48.2086 337.101Z" fill="white"/>
<path d="M43.0778 320.754L35.4913 323.151L34.9591 321.465L42.2481 319.162C43.7191 318.698 44.74 318.102 45.3107 317.377C45.8762 316.635 46.0024 315.768 45.6893 314.776C45.4806 314.115 45.1392 313.523 44.6652 313C44.1694 312.466 43.5814 312.043 42.9012 311.73C42.2044 311.423 41.4615 311.258 40.6726 311.235L32.5406 313.803L32.0084 312.117L42.8923 308.679C43.1237 308.606 43.2816 308.502 43.366 308.366C43.4338 308.236 43.4447 308.069 43.3986 307.865L44.7374 307.442C44.8166 307.635 44.8744 307.79 44.9109 307.905C44.964 308.016 45.0062 308.121 45.0375 308.22C45.1088 308.561 45.0679 308.892 44.9147 309.213C44.7564 309.517 44.5145 309.73 44.1892 309.851L42.4694 310.449C43.6385 310.698 44.658 311.221 45.5278 312.019C46.3924 312.8 47.0021 313.752 47.3569 314.876C47.7848 316.232 47.6372 317.405 46.9143 318.397C46.1913 319.389 44.9125 320.175 43.0778 320.754Z" fill="white"/>
<path d="M30.1818 298.204C30.4877 299.343 31.0483 300.279 31.8635 301.012C32.6748 301.728 33.6537 302.137 34.8002 302.238L42.9962 300.292L43.4044 302.012L30.225 305.142L29.8408 303.523L33.0028 302.772C31.9672 302.537 31.0747 302.117 30.3252 301.511C29.5717 300.888 29.0611 300.163 28.7936 299.336C28.7367 299.171 28.6942 299.03 28.6662 298.912C28.6342 298.777 28.6166 298.665 28.6135 298.577L30.1818 298.204Z" fill="white"/>
<path d="M40.0608 284.505C40.2443 285.599 40.2354 286.646 40.034 287.647C39.8327 288.647 39.4219 289.551 38.8015 290.358L37.4503 289.847C38.0251 288.977 38.4117 288.139 38.6104 287.332C38.7891 286.511 38.8068 285.673 38.6634 284.819C38.4885 283.776 38.1415 282.964 37.6223 282.383C37.086 281.805 36.4247 281.582 35.6384 281.714C35.1084 281.803 34.7339 282.033 34.5149 282.404C34.2759 282.76 34.1211 283.252 34.0505 283.879C33.9599 284.492 33.8809 285.226 33.8134 286.081C33.7118 287.047 33.5772 287.869 33.4098 288.548C33.2224 289.212 32.9423 289.742 32.5694 290.139C32.1765 290.521 31.6297 290.771 30.9288 290.888C30.057 291.035 29.3032 290.942 28.6674 290.609C28.0117 290.262 27.4754 289.737 27.0587 289.033C26.622 288.316 26.3248 287.487 26.1671 286.547C25.9951 285.521 26.0056 284.588 26.1985 283.747C26.3914 282.906 26.7369 282.189 27.235 281.596L28.5564 282.244C28.0896 282.814 27.784 283.454 27.6394 284.164C27.4748 284.86 27.4599 285.609 27.5946 286.413C27.6863 286.96 27.8507 287.468 28.0877 287.938C28.3076 288.411 28.6157 288.781 29.0121 289.048C29.3885 289.301 29.8673 289.379 30.4485 289.282C30.9271 289.201 31.2831 289.019 31.5165 288.733C31.7328 288.451 31.8948 288.055 32.0025 287.545C32.0932 287.037 32.1824 286.416 32.2699 285.681C32.3743 284.626 32.5087 283.698 32.6732 282.897C32.8206 282.099 33.0821 281.458 33.4577 280.973C33.8334 280.488 34.4229 280.178 35.2263 280.044C36.4742 279.834 37.5274 280.141 38.386 280.963C39.2445 281.786 39.8028 282.966 40.0608 284.505Z" fill="white"/>
<path d="M30.658 264.356C29.3763 264.406 28.1972 264.191 27.1208 263.712C26.0263 263.216 25.1408 262.513 24.4641 261.602C23.7874 260.692 23.4262 259.639 23.3804 258.444C23.3373 257.318 23.6019 256.302 24.1743 255.395C24.7287 254.472 25.4206 253.742 26.2501 253.208L17.9882 253.525L17.9205 251.759L34.7561 251.111C34.9986 251.102 35.1785 251.043 35.2957 250.934C35.3957 250.826 35.4503 250.668 35.4597 250.459L36.8626 250.406C36.9279 250.75 36.9555 251.018 36.9454 251.209C36.9421 251.573 36.8071 251.899 36.5406 252.187C36.2741 252.475 35.9763 252.625 35.6472 252.638L34.3222 252.689C35.2261 253.192 35.9554 253.892 36.5102 254.79C37.065 255.688 37.3613 256.631 37.3991 257.618C37.4349 258.554 37.2775 259.427 36.927 260.238C36.5758 261.032 36.0824 261.737 35.4468 262.351C34.8105 262.948 34.0829 263.427 33.2642 263.788C32.4274 264.132 31.5587 264.322 30.658 264.356ZM32.3036 252.975L28.1207 253.136C27.5058 253.385 26.9568 253.77 26.4738 254.292C25.9734 254.814 25.5882 255.401 25.3183 256.053C25.0304 256.689 24.8984 257.318 24.9223 257.942C24.9502 258.67 25.1313 259.322 25.4656 259.899C25.7826 260.476 26.2092 260.971 26.7454 261.385C27.2809 261.78 27.8821 262.078 28.5489 262.278C29.2157 262.478 29.8955 262.564 30.5884 262.538C31.3158 262.51 32.004 262.362 32.6529 262.094C33.3011 261.809 33.8761 261.422 34.3778 260.935C34.8622 260.448 35.2313 259.896 35.4852 259.279C35.7391 258.662 35.8525 257.999 35.8253 257.288C35.8081 256.838 35.7035 256.374 35.5118 255.895C35.32 255.417 35.0686 254.967 34.7575 254.545C34.4285 254.107 34.0505 253.749 33.6236 253.47C33.1966 253.192 32.7566 253.027 32.3036 252.975Z" fill="white"/>
<path d="M37.5124 239.75C37.4714 240.72 37.2515 241.612 36.8526 242.428C36.4365 243.243 35.8952 243.941 35.2288 244.52C34.5451 245.098 33.7716 245.542 32.9084 245.853C32.0459 246.146 31.1297 246.272 30.1599 246.231C28.8957 246.177 27.7475 245.842 26.7153 245.226C25.6838 244.593 24.878 243.752 24.2978 242.704C23.7002 241.655 23.4289 240.481 23.4839 239.182C23.5403 237.849 23.9097 236.702 24.5923 235.742C25.2755 234.765 26.1574 234.013 27.238 233.486C28.3012 232.958 29.4563 232.721 30.7032 232.774C30.8417 232.78 30.9803 232.785 31.1188 232.791C31.24 232.796 31.3349 232.809 31.4035 232.829L30.9133 244.415C31.8868 244.369 32.764 244.138 33.5451 243.72C34.3095 243.284 34.9323 242.711 35.4133 242.003C35.8778 241.277 36.1283 240.481 36.1649 239.615C36.2023 238.732 36.0123 237.891 35.595 237.092C35.1785 236.277 34.6131 235.698 33.8989 235.355L34.3794 233.84C35.0084 234.144 35.5706 234.593 36.066 235.187C36.5614 235.78 36.9398 236.473 37.2012 237.264C37.446 238.038 37.5498 238.867 37.5124 239.75ZM29.6383 244.413L30.0614 234.412C29.0713 234.44 28.1941 234.671 27.4296 235.107C26.6659 235.526 26.0605 236.099 25.6134 236.826C25.1496 237.535 24.8991 238.331 24.8617 239.215C24.8244 240.098 25.0068 240.912 25.409 241.658C25.7938 242.403 26.3573 243.025 27.0995 243.525C27.8252 244.007 28.6714 244.303 29.6383 244.413Z" fill="white"/>
<path d="M39.5318 217.346L27.5455 215.407L27.2468 217.255L25.8608 217.031L26.1595 215.183L25.8002 215.125C24.7051 214.948 23.7888 214.642 23.0515 214.207C22.317 213.754 21.7914 213.204 21.4748 212.556C21.1438 211.888 21.0433 211.151 21.1733 210.347C21.2591 209.817 21.4191 209.316 21.6533 208.845C21.8875 208.373 22.162 207.979 22.4767 207.661L23.6472 208.403C23.4231 208.595 23.2306 208.863 23.0699 209.205C22.9091 209.548 22.7997 209.899 22.7416 210.258C22.6116 211.063 22.8272 211.738 23.3884 212.286C23.9523 212.816 24.8332 213.178 26.031 213.372L26.4416 213.438L27.0391 209.742L28.4251 209.966L27.8276 213.662L39.8139 215.601L39.5318 217.346Z" fill="white"/>
<path d="M43.021 200.94C42.8006 201.885 42.4186 202.722 41.8752 203.449C41.3189 204.156 40.6595 204.732 39.8972 205.177C39.1219 205.601 38.2918 205.879 37.4067 206.011C36.5048 206.139 35.5981 206.096 34.6866 205.884C33.7413 205.663 32.9009 205.298 32.1655 204.788C31.4131 204.275 30.7936 203.649 30.3068 202.913C29.8031 202.172 29.4665 201.364 29.297 200.488C29.1146 199.591 29.1336 198.67 29.354 197.725C29.5745 196.779 29.9629 195.953 30.5192 195.247C31.0587 194.536 31.7181 193.96 32.4973 193.519C33.2596 193.074 34.0917 192.787 34.9936 192.66C35.8787 192.528 36.7938 192.572 37.7391 192.793C38.6506 193.005 39.4826 193.369 40.2349 193.882C40.9703 194.392 41.5899 195.017 42.0936 195.758C42.5843 196.477 42.9209 197.286 43.1033 198.182C43.2728 199.059 43.2453 199.978 43.021 200.94ZM35.1193 204.142C36.0983 204.371 37.0422 204.369 37.9508 204.136C38.8465 203.882 39.6153 203.447 40.2572 202.831C40.8822 202.212 41.2971 201.463 41.5018 200.585C41.7065 199.708 41.6571 198.851 41.3537 198.015C41.0503 197.178 40.5447 196.446 39.8368 195.819C39.112 195.187 38.2685 194.758 37.3064 194.534C36.3273 194.306 35.3815 194.316 34.4689 194.566C33.5564 194.816 32.7791 195.249 32.1372 195.864C31.4953 196.48 31.072 197.227 30.8673 198.104C30.6627 198.982 30.7205 199.841 31.0407 200.681C31.3649 201.504 31.881 202.23 32.5889 202.858C33.2799 203.482 34.1234 203.91 35.1193 204.142Z" fill="white"/>
<path d="M36.3816 179.381C36.0643 180.517 36.0695 181.608 36.3973 182.654C36.7303 183.684 37.364 184.535 38.2984 185.207L46.3411 187.712L45.8155 189.4L32.8825 185.372L33.3772 183.783L36.4801 184.749C35.7091 184.019 35.1556 183.202 34.8197 182.299C34.4889 181.379 34.4192 180.495 34.6107 179.646C34.6456 179.476 34.6812 179.332 34.7172 179.217C34.7585 179.084 34.8002 178.979 34.8425 178.902L36.3816 179.381Z" fill="white"/>
<path d="M56.5229 159.11L55.8501 160.745L48.8538 157.864C47.3952 157.264 46.2257 157.054 45.3452 157.235C44.4647 157.416 43.8365 157.964 43.4606 158.878C43.0715 159.823 43.0585 160.811 43.4217 161.842C43.7915 162.856 44.4427 163.734 45.3752 164.474L53.0207 167.621L52.348 169.256L45.3517 166.376C43.8771 165.769 42.7108 165.551 41.853 165.723C40.9791 165.888 40.3509 166.435 39.9684 167.365C39.5858 168.295 39.5682 169.272 39.9153 170.296C40.2625 171.32 40.9104 172.205 41.859 172.952L49.5285 176.109L48.8558 177.744L36.3297 172.587L36.943 171.096L39.7801 172.264C39.02 171.333 38.5436 170.35 38.3511 169.314C38.1651 168.263 38.2799 167.232 38.6954 166.223C39.1241 165.181 39.7668 164.461 40.6237 164.064C41.4806 163.667 42.4195 163.594 43.4406 163.846C42.6201 162.833 42.1023 161.814 41.8871 160.788C41.6785 159.747 41.7853 158.713 42.2074 157.687C42.4976 156.982 42.8698 156.441 43.3242 156.066C43.7851 155.675 44.3153 155.434 44.9149 155.343C45.505 155.23 46.163 155.248 46.889 155.397C47.6055 155.523 48.3725 155.754 49.1899 156.091L56.5229 159.11Z" fill="white"/>
<path d="M56.7036 152.548C55.9522 152.152 55.4212 151.598 55.1106 150.886C54.7847 150.165 54.674 149.353 54.7784 148.448C54.8755 147.519 55.1866 146.556 55.7116 145.56C56.0185 144.977 56.3835 144.395 56.8067 143.815C57.2299 143.235 57.6627 142.748 58.1051 142.354L57.0931 141.82C56.081 141.287 55.1184 141.162 54.2054 141.445C53.2923 141.728 52.5571 142.399 51.9998 143.457C51.6606 144.101 51.4481 144.802 51.3623 145.56C51.2692 146.295 51.275 147.121 51.3797 148.038L49.9606 148.054C49.8358 146.989 49.841 146.012 49.976 145.124C50.0958 144.227 50.3616 143.387 50.7735 142.605C51.5489 141.133 52.5844 140.189 53.8801 139.775C55.1759 139.36 56.5674 139.545 58.0549 140.329L63.5984 143.25C63.8131 143.363 63.9983 143.402 64.1541 143.366C64.2946 143.323 64.425 143.205 64.5453 143.014L65.7874 143.669C65.7139 143.845 65.6525 143.999 65.6033 144.13C65.554 144.261 65.5055 144.353 65.4579 144.406C65.2406 144.781 64.9645 145.008 64.6295 145.086C64.2944 145.164 63.9926 145.143 63.7238 145.021L62.8376 144.583C63.245 145.483 63.4142 146.464 63.3452 147.525C63.261 148.578 62.9846 149.549 62.5162 150.438C62.1123 151.205 61.5838 151.818 60.9306 152.277C60.2702 152.713 59.5711 152.962 58.8333 153.023C58.0882 153.062 57.3783 152.903 56.7036 152.548ZM61.8519 145.004C61.726 144.722 61.5876 144.483 61.4368 144.286C61.2859 144.089 61.1337 143.95 60.9804 143.869L59.2322 142.948C58.7583 143.364 58.3182 143.828 57.912 144.339C57.5139 144.834 57.1654 145.366 56.8666 145.933C56.277 147.053 56.0228 148.075 56.1041 148.999C56.1853 149.924 56.6093 150.588 57.376 150.992C57.8207 151.226 58.303 151.333 58.8229 151.313C59.3274 151.285 59.8271 151.118 60.322 150.81C60.8016 150.495 61.1989 150.038 61.5139 149.44C61.9097 148.688 62.1315 147.914 62.1793 147.116C62.2353 146.303 62.1261 145.599 61.8519 145.004Z" fill="white"/>
<path d="M70.2292 134.54C70.2011 134.685 70.1692 134.92 70.1335 135.244C70.0978 135.567 70.0156 135.934 69.887 136.343C69.7584 136.752 69.5673 137.164 69.3138 137.577C69.0512 138.006 68.7209 138.363 68.3229 138.647C67.934 138.917 67.5091 139.063 67.0481 139.086C66.5724 139.099 66.0907 138.956 65.6031 138.657L57.3347 133.589L56.3568 135.186L55.1598 134.452L56.1376 132.856L52.2362 130.464L53.1598 128.957L57.0612 131.348L58.691 128.688L59.888 129.421L58.2582 132.082L66.1054 136.892C66.5373 137.116 66.9382 137.158 67.3081 137.019C67.687 136.865 67.9851 136.611 68.2024 136.256C68.456 135.842 68.6204 135.424 68.6956 135.003C68.7561 134.572 68.7794 134.302 68.7655 134.192L70.2292 134.54Z" fill="white"/>
<path d="M74.7121 128.527L63.555 120.845L64.5573 119.389L75.7143 127.071L74.7121 128.527ZM61.2208 119.238L59.0794 117.764L60.0816 116.307L62.2231 117.782L61.2208 119.238Z" fill="white"/>
<path d="M83.7464 117.338C83.1439 118.099 82.4418 118.693 81.6401 119.119C80.8355 119.521 79.9936 119.761 79.1143 119.838C78.2322 119.892 77.3628 119.789 76.5062 119.531C75.636 119.261 74.8341 118.836 74.1003 118.255C73.3394 117.652 72.7351 116.964 72.2873 116.189C71.8259 115.403 71.5321 114.574 71.4059 113.7C71.2662 112.815 71.3064 111.94 71.5267 111.076C71.7442 110.187 72.1542 109.361 72.7566 108.6C73.3591 107.839 74.0626 107.258 74.8672 106.856C75.6582 106.443 76.5001 106.203 77.3929 106.137C78.2722 106.059 79.147 106.155 80.0172 106.424C80.8738 106.682 81.6825 107.113 82.4434 107.716C83.1771 108.297 83.7747 108.98 84.2361 109.766C84.6839 110.541 84.9777 111.37 85.1175 112.255C85.2544 113.115 85.2141 113.99 84.9967 114.879C84.7764 115.744 84.3596 116.563 83.7464 117.338ZM75.2342 116.865C76.0223 117.489 76.8769 117.889 77.7981 118.066C78.7164 118.219 79.5971 118.153 80.4402 117.87C81.2696 117.577 81.9641 117.076 82.5235 116.37C83.0829 115.663 83.4037 114.867 83.4859 113.981C83.568 113.095 83.4229 112.217 83.0504 111.347C82.6643 110.467 82.084 109.72 81.3096 109.106C80.5215 108.482 79.6615 108.088 78.7296 107.925C77.7976 107.762 76.9102 107.822 76.0671 108.105C75.224 108.388 74.5228 108.883 73.9634 109.589C73.4039 110.296 73.0899 111.098 73.0214 111.994C72.9636 112.877 73.1209 113.754 73.4934 114.623C73.8523 115.483 74.4326 116.23 75.2342 116.865Z" fill="white"/>
<path d="M98.9097 99.7898L97.7017 101.081L92.1786 95.9097C91.0145 94.8198 90.0069 94.1969 89.1557 94.0411C88.2919 93.8734 87.5165 94.1566 86.8296 94.8907C86.3559 95.3969 86.0146 96.0153 85.8058 96.7459C85.5843 97.4646 85.5111 98.2151 85.586 98.9976C85.6601 99.7556 85.8922 100.472 86.2823 101.146L92.3368 106.814L91.1288 108.105L81.2404 98.8469L82.3418 97.6699L84.5814 99.7667C84.3493 99.0508 84.2575 98.3118 84.3058 97.5498C84.3416 96.7759 84.5128 96.022 84.8196 95.2883C85.1264 94.5545 85.5522 93.8965 86.097 93.3143C86.6062 92.7701 87.1397 92.4029 87.6975 92.2127C88.2552 92.0226 88.8305 91.9913 89.4232 92.1189C90.0033 92.2346 90.6065 92.4907 91.2327 92.887C91.8462 93.2714 92.4756 93.7658 93.1209 94.3699L98.9097 99.7898Z" fill="white"/>
<path d="M217.317 26.9651C217.019 25.1333 217.343 23.5994 218.289 22.3633C219.253 21.1251 220.663 20.3901 222.521 20.1583C224.241 19.9437 225.705 20.2675 226.913 21.1299C228.136 21.9729 228.848 23.2028 229.05 24.8197C229.35 27.2277 228.185 29.3032 225.555 31.0463L223.139 32.6841C222.333 33.2214 221.662 33.8641 221.127 34.6122C220.608 35.3582 220.399 36.1353 220.5 36.9437L230.511 35.6945L230.758 37.6811L218.607 39.1976L218.41 37.6238C218.23 36.179 218.514 34.8858 219.263 33.7443C220.011 32.6029 220.934 31.6667 222.031 30.936L224.614 29.1724C226.257 28.0591 226.977 26.6854 226.773 25.0514C226.646 24.0366 226.209 23.2614 225.461 22.726C224.711 22.1733 223.811 21.9624 222.762 22.0933C221.61 22.2371 220.737 22.7304 220.143 23.5731C219.567 24.4136 219.381 25.4498 219.587 26.6818L217.317 26.9651Z" fill="white"/>
<path d="M240.554 37.4669C238.39 37.5697 236.781 36.9346 235.726 35.5617C234.671 34.1714 234.076 32.0479 233.941 29.1912L233.872 27.7368C233.736 24.88 234.128 22.7183 235.048 21.2517C235.967 19.7678 237.508 18.9745 239.672 18.8718L240.581 18.8287C242.746 18.726 244.355 19.3697 245.41 20.7599C246.465 22.1328 247.059 24.2477 247.195 27.1045L247.264 28.5588C247.399 31.4156 247.008 33.586 246.089 35.0699C245.169 36.5364 243.627 37.3211 241.463 37.4238L240.554 37.4669ZM240.537 35.4635L241.342 35.4253C242.745 35.3587 243.742 34.7908 244.333 33.7216C244.924 32.6524 245.169 31.0529 245.069 28.9233L244.975 26.9495C244.874 24.8199 244.479 23.2509 243.789 22.2425C243.099 21.2341 242.053 20.7631 240.65 20.8297L239.845 20.8679C238.443 20.9344 237.437 21.5027 236.829 22.5728C236.237 23.642 235.992 25.2415 236.093 27.3711L236.187 29.3449C236.287 31.4745 236.683 33.0435 237.373 34.0519C238.08 35.0595 239.135 35.5301 240.537 35.4635Z" fill="white"/>
<path d="M252.622 24.7314C252.607 22.8755 253.162 21.4091 254.286 20.3323C255.427 19.2559 256.934 18.7452 258.805 18.8001C260.537 18.8509 261.935 19.3947 262.997 20.4316C264.077 21.4517 264.593 22.776 264.545 24.4047C264.474 26.8303 263.006 28.7034 260.14 30.024L257.503 31.2733C256.624 31.681 255.862 32.2136 255.219 32.871C254.593 33.5289 254.268 34.2651 254.244 35.0794L264.327 35.375L264.269 37.3762L252.028 37.0173L252.074 35.432C252.117 33.9766 252.596 32.7421 253.51 31.7284C254.424 30.7148 255.479 29.9307 256.674 29.3761L259.497 28.0283C261.29 27.1792 262.211 25.9316 262.26 24.2857C262.29 23.2634 261.976 22.4305 261.318 21.787C260.662 21.1261 259.805 20.7802 258.748 20.7492C257.587 20.7152 256.649 21.0692 255.933 21.8112C255.235 22.5537 254.894 23.5495 254.909 24.7985L252.622 24.7314Z" fill="white"/>
<path d="M274.575 38.56C272.713 38.3728 271.215 37.6736 270.082 36.4623C268.969 35.2355 268.499 33.7511 268.674 32.0092L270.847 32.2276C270.731 33.3831 271.042 34.3638 271.78 35.1696C272.535 35.9771 273.534 36.4433 274.775 36.568C276.052 36.6963 277.09 36.5044 277.89 35.9926C278.691 35.4807 279.145 34.6901 279.252 33.6208C279.358 32.5688 279.068 31.7296 278.382 31.1032C277.714 30.4613 276.734 30.0753 275.441 29.9453L273.992 29.7998L274.187 27.8595L275.61 28.0025C276.662 28.1082 277.527 27.8991 278.207 27.3751C278.887 26.8511 279.274 26.1234 279.367 25.1921C279.457 24.2953 279.208 23.5647 278.62 23.0005C278.034 22.419 277.189 22.0727 276.086 21.9618C275.051 21.8579 274.184 22.0756 273.485 22.6151C272.806 23.1391 272.378 23.9237 272.204 24.9688L270.108 24.7583C270.338 23.1613 271.019 21.9319 272.151 21.07C273.3 20.2099 274.685 19.8613 276.306 20.0242C277.997 20.194 279.34 20.7819 280.336 21.7879C281.333 22.7939 281.762 23.9868 281.623 25.3665C281.536 26.2288 281.206 27.0057 280.631 27.697C280.057 28.3884 279.381 28.8692 278.605 29.1397C279.553 29.5834 280.299 30.2245 280.842 31.0629C281.387 31.8842 281.606 32.8208 281.5 33.8728C281.334 35.5285 280.582 36.7682 279.245 37.592C277.926 38.4176 276.369 38.7402 274.575 38.56Z" fill="white"/>
<path d="M402.508 92.8206C403.111 92.223 403.799 91.8833 404.572 91.8015C405.357 91.7074 406.165 91.8464 406.996 92.2184C407.852 92.5906 408.676 93.1771 409.469 93.9779C409.932 94.4461 410.377 94.9694 410.803 95.5477C411.229 96.1261 411.563 96.6855 411.805 97.2262L412.618 96.4213C413.431 95.6164 413.84 94.7359 413.845 93.7797C413.85 92.8236 413.432 91.9204 412.59 91.0703C412.078 90.5528 411.474 90.1391 410.777 89.829C410.104 89.5191 409.315 89.276 408.409 89.0998L408.821 87.7412C409.874 87.9427 410.803 88.2417 411.61 88.6381C412.429 89.0223 413.15 89.5286 413.771 90.157C414.942 91.3398 415.53 92.6115 415.535 93.9723C415.54 95.333 414.946 96.6048 413.751 97.7878L409.298 102.196C409.126 102.367 409.033 102.532 409.02 102.691C409.019 102.839 409.092 102.998 409.238 103.171L408.24 104.158C408.094 104.035 407.966 103.93 407.856 103.844C407.746 103.758 407.673 103.684 407.636 103.622C407.344 103.302 407.211 102.97 407.237 102.627C407.263 102.284 407.375 102.003 407.572 101.783L408.256 101.069C407.275 101.187 406.289 101.053 405.299 100.668C404.32 100.271 403.477 99.7148 402.77 99.0002C402.161 98.3842 401.735 97.6955 401.494 96.9343C401.277 96.1731 401.251 95.4313 401.414 94.7089C401.601 93.9866 401.966 93.3572 402.508 92.8206ZM408.151 100.002C408.458 99.9672 408.728 99.9072 408.961 99.8226C409.194 99.738 409.372 99.6347 409.496 99.5128L410.9 98.1225C410.645 97.5451 410.336 96.9857 409.971 96.4445C409.618 95.9155 409.216 95.4231 408.765 94.9673C407.875 94.0678 406.977 93.5177 406.071 93.3169C405.166 93.1162 404.405 93.3207 403.789 93.9304C403.432 94.2841 403.184 94.7119 403.047 95.2138C402.922 95.7035 402.932 96.2306 403.076 96.7953C403.232 97.3477 403.548 97.8642 404.024 98.3447C404.621 98.9484 405.293 99.3932 406.039 99.6789C406.797 99.977 407.501 100.085 408.151 100.002Z" fill="white"/>
<path d="M425.847 95.4898L427.012 96.82L415.043 107.306C414.535 107.751 414.282 108.134 414.285 108.453C414.289 108.773 414.405 109.063 414.633 109.324C414.839 109.559 415.07 109.77 415.328 109.96C415.586 110.149 415.815 110.305 416.015 110.429L415.145 111.606C414.824 111.45 414.471 111.217 414.086 110.909C413.712 110.614 413.412 110.336 413.183 110.076C412.658 109.476 412.411 108.839 412.444 108.165C412.488 107.505 412.816 106.906 413.429 106.369L425.847 95.4898Z" fill="white"/>
<path d="M415.165 118.692C415.299 118.895 415.435 119.085 415.572 119.264C415.696 119.453 415.803 119.578 415.894 119.639C416.049 119.783 416.266 119.867 416.548 119.891C416.829 119.915 417.282 119.85 417.907 119.697C418.533 119.543 419.441 119.302 420.633 118.975L427.762 106.031L428.905 107.514L422.646 118.606L434.726 115.074L435.805 116.475L417.682 121.577C417.347 121.682 416.996 121.723 416.628 121.7C416.246 121.687 415.883 121.585 415.537 121.391C415.188 121.223 414.849 120.937 414.518 120.536C414.409 120.423 414.308 120.293 414.216 120.145C414.121 120.021 414.018 119.859 413.908 119.66L415.165 118.692Z" fill="white"/>
<path d="M441.69 128.057C441.01 127.094 440.161 126.409 439.143 126.003C438.135 125.611 437.075 125.565 435.964 125.866L428.944 130.522L427.967 129.049L439.255 121.561L440.175 122.948L437.466 124.744C438.519 124.607 439.502 124.694 440.414 125.004C441.337 125.328 442.066 125.832 442.603 126.516C442.713 126.651 442.801 126.769 442.868 126.87C442.945 126.986 443 127.085 443.034 127.166L441.69 128.057Z" fill="white"/>
<path d="M438.013 137.445C438.752 137.025 439.504 136.877 440.272 136.999C441.054 137.113 441.798 137.457 442.504 138.033C443.233 138.615 443.876 139.396 444.432 140.376C444.758 140.949 445.051 141.57 445.311 142.239C445.572 142.908 445.749 143.536 445.842 144.121L446.836 143.555C447.831 142.99 448.455 142.247 448.709 141.325C448.963 140.403 448.794 139.422 448.204 138.382C447.844 137.749 447.368 137.192 446.776 136.711C446.208 136.237 445.509 135.797 444.68 135.39L445.431 134.186C446.395 134.655 447.215 135.186 447.891 135.779C448.582 136.363 449.145 137.039 449.582 137.808C450.404 139.255 450.64 140.636 450.291 141.951C449.941 143.266 449.036 144.339 447.574 145.17L442.126 148.266C441.915 148.386 441.783 148.521 441.729 148.671C441.69 148.813 441.718 148.986 441.814 149.191L440.594 149.885C440.485 149.727 440.388 149.593 440.305 149.481C440.221 149.369 440.17 149.278 440.151 149.21C439.952 148.824 439.91 148.469 440.024 148.145C440.139 147.821 440.32 147.578 440.568 147.417L441.414 146.906C440.436 146.764 439.519 146.378 438.663 145.749C437.822 145.11 437.153 144.354 436.657 143.48C436.229 142.726 435.997 141.95 435.963 141.153C435.952 140.361 436.119 139.638 436.465 138.983C436.834 138.335 437.35 137.822 438.013 137.445ZM441.591 145.849C441.896 145.895 442.172 145.907 442.419 145.886C442.667 145.866 442.866 145.812 443.016 145.727L444.734 144.75C444.639 144.126 444.486 143.506 444.275 142.888C444.072 142.286 443.812 141.706 443.495 141.148C442.87 140.048 442.147 139.283 441.325 138.853C440.502 138.423 439.714 138.422 438.961 138.85C438.524 139.099 438.174 139.447 437.91 139.896C437.662 140.336 437.534 140.848 437.526 141.43C437.533 142.005 437.704 142.585 438.038 143.173C438.457 143.912 438.99 144.516 439.636 144.986C440.29 145.472 440.942 145.759 441.591 145.849Z" fill="white"/>
<path d="M442.66 154.155L444.947 153.033L445.622 154.41L443.335 155.532L442.66 154.155Z" fill="white"/>
<path d="M447.281 164.076L458.442 159.295L457.705 157.574L458.996 157.021L459.733 158.742L460.067 158.599C461.087 158.162 462.025 157.93 462.88 157.903C463.743 157.892 464.481 158.075 465.096 158.453C465.733 158.84 466.212 159.408 466.532 160.157C466.744 160.651 466.877 161.16 466.931 161.683C466.985 162.207 466.965 162.687 466.869 163.124L465.483 163.124C465.57 162.841 465.589 162.513 465.541 162.137C465.494 161.761 465.398 161.406 465.255 161.072C464.935 160.323 464.391 159.867 463.624 159.706C462.864 159.56 461.926 159.726 460.811 160.203L460.428 160.367L461.902 163.809L460.611 164.362L459.138 160.92L447.977 165.701L447.281 164.076Z" fill="white"/>
<path d="M465.01 176.624C464.578 175.527 463.916 174.66 463.024 174.024C462.138 173.403 461.119 173.107 459.968 173.134L452.043 175.989L451.444 174.325L464.189 169.735L464.752 171.301L461.694 172.402C462.75 172.52 463.684 172.837 464.497 173.355C465.315 173.889 465.904 174.552 466.263 175.344C466.338 175.502 466.396 175.637 466.437 175.751C466.484 175.882 466.514 175.991 466.527 176.078L465.01 176.624Z" fill="white"/>
<path d="M465.911 334.883L465.258 336.526L450.472 330.648C449.843 330.398 449.388 330.348 449.105 330.496C448.822 330.645 448.617 330.88 448.489 331.203C448.373 331.493 448.29 331.795 448.24 332.111C448.189 332.426 448.154 332.702 448.135 332.937L446.691 332.699C446.684 332.341 446.73 331.921 446.828 331.438C446.921 330.971 447.031 330.577 447.159 330.254C447.453 329.513 447.907 329.004 448.521 328.726C449.129 328.464 449.812 328.483 450.569 328.784L465.911 334.883Z" fill="white"/>
<path d="M456.819 342.526L459.18 344.063L459.434 343.493L461.856 344.574L461.157 346.141L458.735 345.06L456.459 343.333L456.819 342.526Z" fill="white"/>
<path d="M438.381 348.93C438.826 348.067 439.401 347.35 440.107 346.778C440.827 346.213 441.611 345.809 442.459 345.564C443.323 345.327 444.211 345.249 445.125 345.331C446.031 345.428 446.915 345.7 447.777 346.145C448.901 346.726 449.802 347.513 450.479 348.506C451.148 349.515 451.526 350.617 451.611 351.812C451.712 353.015 451.464 354.194 450.868 355.349C450.255 356.535 449.438 357.42 448.415 358.004C447.384 358.603 446.268 358.914 445.066 358.937C443.879 358.968 442.732 358.697 441.623 358.125C441.5 358.061 441.376 357.997 441.253 357.934C441.145 357.878 441.065 357.827 441.011 357.779L446.33 347.475C445.428 347.107 444.534 346.948 443.65 346.998C442.773 347.072 441.968 347.329 441.233 347.769C440.506 348.233 439.944 348.849 439.547 349.62C439.141 350.405 438.96 351.248 439.002 352.148C439.037 353.063 439.306 353.826 439.81 354.438L438.737 355.61C438.294 355.069 437.973 354.425 437.773 353.678C437.574 352.932 437.522 352.144 437.618 351.316C437.721 350.511 437.976 349.715 438.381 348.93ZM447.486 348.013L442.894 356.908C443.804 357.3 444.697 357.459 445.574 357.385C446.443 357.327 447.233 357.062 447.945 356.59C448.664 356.142 449.226 355.526 449.631 354.74C450.037 353.955 450.214 353.139 450.163 352.293C450.127 351.455 449.878 350.654 449.415 349.888C448.959 349.145 448.316 348.521 447.486 348.013ZM452.696 356.908L453.626 356.071L455.07 358.544L454.212 360.208L452.696 356.908Z" fill="white"/>
<path d="M430.02 363.469C430.539 362.629 431.172 361.95 431.919 361.434C432.671 360.941 433.492 360.602 434.38 360.417C435.259 360.247 436.151 360.238 437.056 360.39C437.951 360.556 438.804 360.889 439.616 361.391C440.707 362.065 441.552 362.923 442.151 363.966C442.75 365.008 443.046 366.128 443.039 367.326C443.033 368.525 442.679 369.691 441.978 370.827C441.313 371.904 440.475 372.7 439.464 373.216C438.467 373.741 437.425 373.943 436.339 373.822L436.776 372.075C437.566 372.115 438.306 371.94 438.995 371.551C439.689 371.185 440.255 370.649 440.692 369.941C441.165 369.174 441.399 368.35 441.392 367.47C441.386 366.59 441.154 365.744 440.698 364.932C440.233 364.135 439.558 363.464 438.673 362.917C437.803 362.379 436.896 362.084 435.951 362.03C435.006 361.976 434.125 362.134 433.305 362.504C432.501 362.883 431.862 363.456 431.388 364.223C431.079 364.724 430.871 365.258 430.766 365.825C430.651 366.406 430.637 366.957 430.722 367.479C430.813 368.024 430.999 368.465 431.28 368.802L429.923 370.011C429.505 369.467 429.225 368.815 429.083 368.055C428.947 367.319 428.954 366.549 429.104 365.745C429.259 364.965 429.565 364.207 430.02 363.469Z" fill="white"/>
<path d="M421.115 376.496C421.688 375.713 422.367 375.093 423.152 374.637C423.941 374.205 424.774 373.933 425.649 373.823C426.529 373.736 427.401 373.806 428.267 374.032C429.147 374.268 429.964 374.663 430.719 375.216C431.502 375.789 432.132 376.455 432.609 377.212C433.1 377.98 433.425 378.798 433.584 379.666C433.757 380.545 433.75 381.421 433.562 382.293C433.378 383.19 433 384.03 432.426 384.813C431.853 385.596 431.172 386.204 430.383 386.636C429.608 387.078 428.776 387.35 427.886 387.45C427.011 387.56 426.133 387.498 425.253 387.262C424.387 387.036 423.563 386.636 422.78 386.063C422.025 385.509 421.402 384.849 420.911 384.082C420.434 383.324 420.11 382.506 419.936 381.627C419.767 380.773 419.774 379.897 419.958 379.001C420.146 378.128 420.531 377.293 421.115 376.496ZM429.639 376.648C428.828 376.054 427.959 375.686 427.031 375.544C426.108 375.426 425.23 375.525 424.399 375.84C423.581 376.164 422.906 376.691 422.373 377.418C421.841 378.145 421.55 378.953 421.502 379.841C421.453 380.729 421.631 381.601 422.036 382.456C422.455 383.322 423.063 384.046 423.86 384.63C424.672 385.224 425.546 385.585 426.483 385.713C427.421 385.841 428.305 385.748 429.137 385.433C429.969 385.118 430.651 384.597 431.183 383.87C431.716 383.143 431.999 382.33 432.034 381.432C432.058 380.547 431.868 379.677 431.463 378.822C431.072 377.977 430.464 377.252 429.639 376.648Z" fill="white"/>
<path d="M428.493 398.281L427.358 399.637L415.158 389.422C414.64 388.988 414.223 388.797 413.908 388.85C413.593 388.903 413.324 389.062 413.101 389.328C412.901 389.567 412.727 389.828 412.58 390.112C412.433 390.396 412.314 390.647 412.223 390.864L410.926 390.185C411.031 389.844 411.206 389.459 411.451 389.031C411.685 388.616 411.913 388.276 412.135 388.01C412.647 387.399 413.238 387.057 413.908 386.985C414.568 386.927 415.209 387.159 415.834 387.682L428.493 398.281Z" fill="white"/>
<path d="M403.26 397.66C403.929 396.956 404.681 396.428 405.518 396.076C406.368 395.735 407.234 395.566 408.116 395.568C409.012 395.582 409.886 395.755 410.741 396.089C411.583 396.436 412.356 396.943 413.06 397.612C413.977 398.484 414.622 399.491 414.994 400.634C415.355 401.79 415.409 402.953 415.157 404.125C414.917 405.308 414.35 406.371 413.455 407.313C412.536 408.281 411.503 408.902 410.358 409.177C409.201 409.464 408.042 409.451 406.882 409.137C405.734 408.835 404.708 408.254 403.803 407.395C403.703 407.299 403.602 407.203 403.502 407.108C403.414 407.024 403.35 406.952 403.312 406.892L411.298 398.485C410.535 397.879 409.722 397.476 408.859 397.278C407.996 397.104 407.151 397.125 406.323 397.342C405.495 397.584 404.783 398.019 404.186 398.648C403.578 399.289 403.168 400.047 402.957 400.923C402.735 401.812 402.78 402.62 403.093 403.348L401.735 404.173C401.461 403.53 401.333 402.822 401.35 402.05C401.367 401.277 401.537 400.506 401.861 399.737C402.185 398.993 402.651 398.301 403.26 397.66ZM412.258 399.325L405.364 406.582C406.128 407.213 406.941 407.615 407.803 407.789C408.654 407.976 409.487 407.942 410.302 407.688C411.117 407.459 411.829 407.024 412.438 406.383C413.047 405.742 413.445 405.008 413.632 404.182C413.832 403.368 413.817 402.528 413.586 401.663C413.356 400.823 412.913 400.043 412.258 399.325Z" fill="white"/>
<path d="M382.277 416.749C383.1 416.085 384.03 415.678 385.069 415.53C386.119 415.396 387.1 415.494 388.014 415.826L386.365 413.782L387.599 412.786L399.519 427.556L398.143 428.667L392.951 422.233C393.056 423.329 392.952 424.359 392.639 425.325C392.338 426.303 391.749 427.147 390.872 427.854C390.13 428.453 389.344 428.832 388.514 428.99C387.67 429.159 386.827 429.149 385.985 428.96C385.153 428.785 384.363 428.455 383.613 427.968C382.875 427.495 382.228 426.914 381.673 426.226C381.075 425.484 380.642 424.686 380.376 423.832C380.096 422.988 379.978 422.125 380.023 421.242C380.079 420.373 380.291 419.545 380.658 418.758C381.023 417.996 381.562 417.326 382.277 416.749ZM383.581 417.701C383.014 418.159 382.581 418.698 382.28 419.319C381.98 419.941 381.818 420.595 381.794 421.283C381.77 421.971 381.865 422.641 382.079 423.292C382.303 423.957 382.634 424.559 383.069 425.099C383.668 425.841 384.39 426.405 385.236 426.791C386.08 427.202 386.943 427.374 387.825 427.307C388.704 427.266 389.522 426.94 390.277 426.33C390.816 425.894 391.224 425.365 391.5 424.741C391.763 424.128 391.913 423.472 391.95 422.773C391.985 422.099 391.927 421.433 391.775 420.776L389.13 417.498C388.782 417.177 388.363 416.948 387.872 416.809C387.393 416.684 386.892 416.643 386.369 416.686C385.834 416.74 385.323 416.852 384.836 417.022C384.35 417.192 383.931 417.418 383.581 417.701Z" fill="white"/>
<path d="M384.472 439.156L383.027 440.175L373.858 427.171C373.469 426.618 373.115 426.327 372.797 426.297C372.478 426.267 372.178 426.352 371.894 426.551C371.639 426.731 371.405 426.939 371.19 427.176C370.975 427.412 370.795 427.624 370.651 427.811L369.572 426.822C369.761 426.518 370.029 426.192 370.376 425.841C370.708 425.5 371.016 425.23 371.299 425.03C371.951 424.571 372.61 424.392 373.276 424.495C373.928 424.608 374.489 424.997 374.958 425.663L384.472 439.156Z" fill="white"/>
<path d="M360.326 432.03C361.154 431.523 362.018 431.207 362.917 431.083C363.811 430.983 364.684 431.048 365.536 431.278C366.383 431.532 367.164 431.928 367.879 432.466C368.603 433.018 369.209 433.694 369.698 434.492C370.205 435.32 370.535 436.175 370.688 437.057C370.851 437.953 370.841 438.833 370.658 439.697C370.485 440.576 370.145 441.383 369.641 442.119C369.13 442.879 368.461 443.512 367.633 444.019C366.805 444.526 365.945 444.829 365.051 444.929C364.166 445.044 363.293 444.979 362.432 444.734C361.58 444.504 360.792 444.113 360.067 443.56C359.352 443.023 358.741 442.34 358.235 441.512C357.746 440.714 357.42 439.866 357.258 438.97C357.105 438.088 357.115 437.208 357.288 436.33C357.456 435.475 357.795 434.667 358.306 433.908C358.81 433.172 359.484 432.546 360.326 432.03ZM368.154 435.407C367.63 434.549 366.965 433.879 366.162 433.396C365.352 432.936 364.503 432.694 363.614 432.669C362.734 432.659 361.909 432.89 361.141 433.36C360.372 433.831 359.797 434.468 359.414 435.271C359.032 436.075 358.866 436.949 358.916 437.894C358.975 438.853 359.262 439.755 359.778 440.597C360.303 441.455 360.975 442.121 361.793 442.595C362.612 443.069 363.466 443.319 364.355 443.344C365.244 443.368 366.072 443.145 366.841 442.675C367.61 442.204 368.181 441.56 368.554 440.742C368.912 439.933 369.067 439.056 369.017 438.111C368.976 437.18 368.688 436.279 368.154 435.407Z" fill="white"/>
<path d="M344.831 440.579C345.712 440.131 346.605 439.881 347.512 439.828C348.411 439.798 349.288 439.935 350.142 440.239C350.982 440.551 351.748 441.007 352.442 441.607C353.121 442.214 353.676 442.943 354.108 443.793C354.69 444.936 354.965 446.109 354.935 447.311C354.905 448.513 354.575 449.623 353.947 450.644C353.318 451.664 352.409 452.476 351.22 453.082C350.092 453.656 348.962 453.9 347.83 453.815C346.705 453.746 345.711 453.377 344.846 452.708L346.127 451.443C346.782 451.888 347.504 452.123 348.295 452.149C349.078 452.198 349.84 452.033 350.582 451.656C351.385 451.247 352.013 450.665 352.465 449.91C352.917 449.155 353.159 448.312 353.192 447.381C353.208 446.458 352.981 445.534 352.51 444.607C352.046 443.695 351.425 442.971 350.646 442.434C349.867 441.896 349.032 441.573 348.139 441.463C347.255 441.368 346.411 441.526 345.608 441.934C345.083 442.202 344.628 442.55 344.243 442.979C343.843 443.416 343.544 443.879 343.346 444.369C343.14 444.882 343.07 445.356 343.135 445.789L341.347 446.116C341.272 445.434 341.372 444.732 341.646 444.009C341.913 443.31 342.319 442.655 342.865 442.047C343.403 441.462 344.059 440.972 344.831 440.579Z" fill="white"/>
<path d="M326.947 448.837L334.254 453.307L335.874 449.698L334.24 445.788L335.871 445.106L343.189 462.619L341.557 463.301L336.605 451.45L332.376 461.221L330.577 461.974L333.551 454.727L325.172 449.579L326.947 448.837Z" fill="white"/>
<path d="M315.415 452.586C316.353 452.274 317.274 452.159 318.178 452.242C319.071 452.347 319.918 452.613 320.718 453.041C321.501 453.474 322.192 454.039 322.788 454.736C323.369 455.438 323.81 456.241 324.111 457.146C324.515 458.363 324.613 459.563 324.404 460.747C324.195 461.931 323.704 462.981 322.93 463.896C322.157 464.811 321.137 465.479 319.871 465.9C318.67 466.3 317.516 466.373 316.409 466.121C315.308 465.884 314.379 465.371 313.623 464.582L315.079 463.522C315.66 464.059 316.339 464.399 317.117 464.542C317.885 464.707 318.663 464.658 319.452 464.395C320.308 464.111 321.015 463.629 321.575 462.949C322.134 462.27 322.499 461.473 322.67 460.557C322.824 459.647 322.737 458.699 322.408 457.712C322.086 456.742 321.579 455.933 320.889 455.286C320.199 454.639 319.421 454.194 318.555 453.953C317.695 453.727 316.837 453.757 315.982 454.042C315.422 454.228 314.921 454.504 314.477 454.871C314.016 455.244 313.651 455.658 313.382 456.112C313.102 456.589 312.962 457.047 312.962 457.485L311.145 457.542C311.173 456.857 311.376 456.177 311.755 455.503C312.122 454.851 312.622 454.265 313.252 453.744C313.872 453.246 314.593 452.86 315.415 452.586Z" fill="white"/>
<path d="M294.844 458.474L296.561 458.05L298.377 465.394C298.743 466.875 299.278 467.921 299.983 468.532C300.692 469.161 301.534 469.354 302.51 469.112C303.149 468.954 303.747 468.628 304.303 468.133C304.847 467.659 305.292 467.076 305.638 466.383C305.972 465.711 306.151 464.989 306.174 464.215L304.183 456.164L305.899 455.739L310.455 474.164L308.739 474.589L306.698 466.335C306.418 467.44 305.885 468.393 305.102 469.194C304.305 470.016 303.377 470.559 302.317 470.821C301.559 471.008 300.887 471.032 300.299 470.892C299.694 470.756 299.167 470.466 298.718 470.024C298.257 469.602 297.865 469.065 297.543 468.413C297.225 467.777 296.96 467.031 296.748 466.172L294.844 458.474Z" fill="white"/>
<path d="M290.44 463.31C290.579 464.148 290.458 464.905 290.078 465.583C289.701 466.278 289.12 466.857 288.336 467.321C287.537 467.804 286.582 468.138 285.471 468.321C284.821 468.429 284.137 468.489 283.419 468.503C282.701 468.516 282.051 468.465 281.47 468.35L281.657 469.479C281.843 470.608 282.325 471.451 283.102 472.007C283.879 472.564 284.858 472.745 286.038 472.55C286.756 472.431 287.443 472.177 288.099 471.787C288.741 471.417 289.395 470.914 290.063 470.276L290.933 471.397C290.16 472.14 289.379 472.726 288.589 473.156C287.802 473.602 286.972 473.897 286.1 474.041C284.458 474.313 283.081 474.058 281.968 473.275C280.854 472.493 280.161 471.273 279.887 469.614L278.865 463.432C278.826 463.192 278.745 463.021 278.622 462.918C278.503 462.833 278.33 462.8 278.105 462.819L277.876 461.434C278.062 461.386 278.221 461.342 278.355 461.302C278.489 461.262 278.592 461.246 278.663 461.251C279.094 461.198 279.441 461.281 279.706 461.501C279.97 461.72 280.135 461.974 280.2 462.262L280.387 463.233C280.859 462.364 281.538 461.637 282.425 461.051C283.315 460.482 284.256 460.116 285.247 459.952C286.102 459.81 286.91 459.861 287.671 460.104C288.417 460.368 289.038 460.774 289.533 461.325C290.013 461.896 290.316 462.557 290.44 463.31ZM281.318 463.764C281.17 464.034 281.063 464.289 280.997 464.529C280.931 464.768 280.912 464.973 280.94 465.144L281.262 467.094C281.881 467.22 282.516 467.29 283.168 467.305C283.804 467.323 284.438 467.28 285.071 467.175C286.319 466.969 287.287 466.554 287.975 465.931C288.662 465.308 288.935 464.569 288.794 463.714C288.712 463.218 288.506 462.768 288.176 462.366C287.849 461.981 287.413 461.684 286.869 461.476C286.328 461.284 285.724 461.243 285.057 461.354C284.219 461.492 283.468 461.783 282.804 462.227C282.122 462.673 281.627 463.186 281.318 463.764Z" fill="white"/>
<path d="M272.911 461.922L274.274 475.399L272.515 475.577L271.152 462.1L272.911 461.922ZM274.559 478.219L274.821 480.806L273.062 480.984L272.8 478.397L274.559 478.219Z" fill="white"/>
<path d="M250.754 463.251L252.521 463.191L252.778 470.753C252.832 472.347 253.106 473.499 253.598 474.211C254.091 474.94 254.84 475.287 255.845 475.253C256.538 475.229 257.216 475.033 257.88 474.664C258.544 474.311 259.126 473.832 259.626 473.225C260.109 472.637 260.45 471.966 260.65 471.213L260.369 462.924L262.136 462.864L262.596 476.402L260.985 476.457L260.88 473.391C260.539 474.061 260.082 474.649 259.51 475.154C258.938 475.677 258.284 476.089 257.548 476.392C256.813 476.694 256.047 476.859 255.25 476.886C254.505 476.912 253.868 476.795 253.339 476.535C252.81 476.276 252.38 475.891 252.051 475.382C251.722 474.89 251.476 474.283 251.313 473.56C251.15 472.855 251.054 472.06 251.024 471.177L250.754 463.251Z" fill="white"/>
<path fill-rule="evenodd" clip-rule="evenodd" d="M210.574 33.5134C169.244 41.0017 131.76 60.0957 101.792 87.4173L103.334 88.7181C133.009 61.7293 170.096 42.8711 210.98 35.473L210.574 33.5134ZM287.275 35.184C328.242 42.2384 365.121 60.6501 394.719 86.9514L396.092 85.4958C366.215 58.932 328.981 40.3364 287.618 33.2134L287.275 35.184ZM461.348 188.675L459.374 189.052C465.808 211.164 468.82 234.68 467.821 258.96C466.989 279.172 463.431 298.628 457.516 316.988L459.4 317.663C465.381 299.117 468.979 279.462 469.819 259.042C470.824 234.606 467.804 210.937 461.348 188.675ZM241.462 469.833L241.544 467.835C241.378 467.829 241.211 467.822 241.044 467.815C181.95 465.384 129.321 439.646 91.6513 399.826L90.1106 401.108C128.132 441.346 181.28 467.358 240.962 469.813C241.129 469.82 241.295 469.827 241.462 469.833Z" fill="white"/>
<path fill-rule="evenodd" clip-rule="evenodd" d="M244.982 376.84C247.023 378.872 248.985 382.102 250.412 385.584C251.854 381.843 253.939 378.318 256.114 376.154C261.236 371.054 268.793 372.693 273.255 377.134C277.716 381.576 279.953 388.51 274.24 394.198C271.686 396.74 267.845 398.962 263.915 400.362C268.191 401.787 272.379 404.114 274.83 406.555C279.953 411.654 278.307 419.177 273.845 423.618C269.384 428.06 262.418 430.287 256.705 424.599C254.077 421.984 251.791 418.013 250.394 413.983C248.984 417.808 246.793 421.523 244.294 424.011C238.58 429.699 231.614 427.471 227.153 423.03C222.692 418.589 221.045 411.066 226.168 405.966C228.302 403.841 231.754 401.802 235.434 400.369C232.134 398.979 229.029 397.048 226.856 394.885C221.143 389.197 223.38 382.262 227.841 377.821C232.303 373.38 239.86 371.741 244.982 376.84ZM258.452 392.666C254.056 396.865 247.131 396.912 242.677 392.775C246.895 397.151 246.943 404.045 242.787 408.479C247.183 404.28 254.108 404.232 258.561 408.37C254.344 403.994 254.296 397.1 258.452 392.666Z" fill="white"/>
</g>
<path d="M199.977 114.304V130.081C199.979 130.509 199.871 130.93 199.663 131.303C199.456 131.677 199.155 131.991 198.791 132.215L192.983 135.558C194.275 133.661 194.607 132.523 194.713 127.971V116.995C194.714 116.405 194.558 115.826 194.263 115.316C193.967 114.806 193.542 114.383 193.03 114.091L186.949 110.534L190.576 108.436C191.076 108.15 191.642 108 192.218 108C192.794 108 193.36 108.15 193.86 108.436L197.973 110.807C198.584 111.164 199.09 111.674 199.442 112.288C199.793 112.902 199.978 113.597 199.977 114.304Z" fill="white"/>
<path d="M213.049 130.295V135.036C213.05 135.74 212.866 136.432 212.517 137.044C212.167 137.655 211.665 138.164 211.058 138.521L199.37 145.266H199.275L197.367 146.345C197.004 146.546 196.596 146.652 196.181 146.652C195.767 146.652 195.359 146.546 194.996 146.345L189.176 142.99C191.475 143.168 192.625 142.872 196.608 140.702L206.091 135.202C206.596 134.904 207.015 134.479 207.306 133.97C207.597 133.461 207.75 132.885 207.751 132.298V125.328L211.461 127.462C211.948 127.757 212.35 128.173 212.628 128.669C212.907 129.166 213.052 129.726 213.049 130.295Z" fill="white"/>
<path d="M205.37 150.754V155.022C205.373 155.596 205.223 156.161 204.935 156.659C204.648 157.157 204.233 157.569 203.735 157.855L199.609 160.225C199 160.575 198.309 160.758 197.606 160.758C196.903 160.758 196.213 160.575 195.603 160.225L183.915 153.481H183.844L181.947 152.366C181.581 152.144 181.28 151.831 181.072 151.456C180.864 151.082 180.757 150.661 180.762 150.233V143.488C181.746 145.562 182.575 146.416 186.452 148.775L195.935 154.263C196.442 154.56 197.019 154.716 197.606 154.716C198.194 154.716 198.771 154.56 199.277 154.263L205.37 150.754Z" fill="white"/>
<path d="M182.173 161.423L178.522 163.556C178.024 163.847 177.457 164 176.88 164C176.304 164 175.737 163.847 175.239 163.556L171.114 161.186C170.491 160.843 169.97 160.34 169.606 159.73C169.241 159.12 169.046 158.423 169.039 157.712V141.935C169.036 141.507 169.143 141.086 169.351 140.712C169.559 140.338 169.86 140.024 170.225 139.801L176.151 136.447C174.847 138.355 174.516 139.505 174.421 144.033V155.022C174.426 155.616 174.589 156.197 174.893 156.708C175.198 157.218 175.632 157.638 176.151 157.926L182.173 161.423Z" fill="white"/>
<path d="M179.945 128.955C177.657 128.789 176.507 129.074 172.524 131.255L163.041 136.743C162.526 137.034 162.097 137.455 161.797 137.965C161.497 138.475 161.337 139.056 161.334 139.647V146.677L157.636 144.543C157.139 144.256 156.726 143.843 156.438 143.346C156.151 142.848 156 142.284 156 141.71V136.968C155.995 136.262 156.178 135.567 156.53 134.955C156.882 134.342 157.39 133.834 158.003 133.483L169.691 126.727L169.798 126.667L171.683 125.601C172.058 125.391 172.48 125.281 172.91 125.281C173.339 125.281 173.762 125.391 174.136 125.601L179.945 128.955Z" fill="white"/>
<path d="M188.335 121.808V128.517C187.351 126.442 186.522 125.589 182.645 123.23L173.162 117.73C172.651 117.444 172.076 117.294 171.491 117.294C170.906 117.294 170.33 117.444 169.82 117.73L163.727 121.286V116.983C163.722 116.413 163.866 115.852 164.144 115.355C164.423 114.859 164.827 114.443 165.315 114.15L169.44 111.779C170.05 111.43 170.741 111.246 171.443 111.246C172.146 111.246 172.837 111.43 173.447 111.779L185.135 118.536H185.218L187.102 119.65C187.479 119.87 187.791 120.185 188.007 120.564C188.224 120.943 188.337 121.371 188.335 121.808Z" fill="white"/>
<path d="M338.145 148.301L336.177 142.943H327.299L325.414 148.301H319.949L329.065 124.344C329.13 124.17 329.246 124.02 329.399 123.915C329.551 123.809 329.733 123.752 329.918 123.751H333.676C333.861 123.753 334.042 123.811 334.194 123.917C334.346 124.022 334.463 124.171 334.529 124.344L343.621 148.301H338.145ZM328.923 138.509H334.648L331.803 130.52L328.923 138.509Z" fill="white"/>
<path d="M243.114 148.301L241.193 142.931H232.315L230.383 148.301H224.906L234.022 124.332C234.087 124.159 234.203 124.009 234.356 123.903C234.508 123.797 234.69 123.74 234.875 123.74H238.633C238.818 123.742 238.999 123.799 239.151 123.905C239.303 124.011 239.42 124.16 239.486 124.332L248.59 148.301H243.114ZM233.891 138.51H239.605L236.772 130.52L233.891 138.51Z" fill="white"/>
<path d="M253.781 148.301V123.751H259.127V143.749H268.812C269.201 143.752 269.573 143.908 269.848 144.183C270.123 144.458 270.279 144.83 270.282 145.219V148.301H253.781Z" fill="white"/>
<path d="M278.579 148.301V138.889C278.58 138.397 278.449 137.914 278.2 137.49L270.234 123.751H274.976C275.25 123.751 275.52 123.823 275.757 123.96C275.994 124.098 276.191 124.296 276.327 124.534L281.247 133.223L286.166 124.593C286.303 124.356 286.5 124.159 286.737 124.021C286.974 123.884 287.243 123.811 287.517 123.811H292.259L284.257 137.49C284.007 137.913 283.876 138.397 283.878 138.889V148.372L278.579 148.301Z" fill="white"/>
<path d="M316.24 148.301H312.233C311.898 148.3 311.573 148.18 311.317 147.963C311.061 147.746 310.89 147.446 310.834 147.115L310.301 142.303C310.267 141.53 309.934 140.801 309.372 140.27C308.81 139.739 308.063 139.448 307.29 139.458H302.549V148.301H297.25V123.751H307.598C312.826 123.751 315.896 126.976 315.896 131.468C315.937 132.529 315.667 133.579 315.119 134.489C314.572 135.398 313.77 136.128 312.814 136.589C313.619 137.153 314.287 137.889 314.771 138.744C315.255 139.6 315.542 140.552 315.612 141.532L316.24 148.301ZM302.525 128.149V134.882H307.266C307.727 134.923 308.19 134.863 308.625 134.707C309.06 134.551 309.456 134.304 309.786 133.98C310.116 133.657 310.372 133.266 310.537 132.835C310.701 132.403 310.77 131.941 310.74 131.48C310.765 131.026 310.693 130.571 310.527 130.147C310.361 129.723 310.106 129.34 309.778 129.024C309.451 128.708 309.059 128.466 308.63 128.315C308.2 128.164 307.743 128.108 307.29 128.149H302.525Z" fill="white"/>
</g>
<defs>
<filter id="filter0_f_2213_1895" x="-130" y="-832" width="1329" height="1329" filterUnits="userSpaceOnUse" color-interpolation-filters="sRGB">
<feFlood flood-opacity="0" result="BackgroundImageFix"/>
<feBlend mode="normal" in="SourceGraphic" in2="BackgroundImageFix" result="shape"/>
<feGaussianBlur stdDeviation="150" result="effect1_foregroundBlur_2213_1895"/>
</filter>
<filter id="filter1_f_2213_1895" x="-792" y="-72" width="1479" height="1479" filterUnits="userSpaceOnUse" color-interpolation-filters="sRGB">
<feFlood flood-opacity="0" result="BackgroundImageFix"/>
<feBlend mode="normal" in="SourceGraphic" in2="BackgroundImageFix" result="shape"/>
<feGaussianBlur stdDeviation="150" result="effect1_foregroundBlur_2213_1895"/>
</filter>
<filter id="filter2_d_2213_1895" x="96.9141" y="211.308" width="306.656" height="103.084" filterUnits="userSpaceOnUse" color-interpolation-filters="sRGB">
<feFlood flood-opacity="0" result="BackgroundImageFix"/>
<feColorMatrix in="SourceAlpha" type="matrix" values="0 0 0 0 0 0 0 0 0 0 0 0 0 0 0 0 0 0 127 0" result="hardAlpha"/>
<feOffset dy="1"/>
<feGaussianBlur stdDeviation="2.5"/>
<feComposite in2="hardAlpha" operator="out"/>
<feColorMatrix type="matrix" values="0 0 0 0 0 0 0 0 0 0 0 0 0 0 0 0 0 0 0.6 0"/>
<feBlend mode="normal" in2="BackgroundImageFix" result="effect1_dropShadow_2213_1895"/>
<feBlend mode="normal" in="SourceGraphic" in2="effect1_dropShadow_2213_1895" result="shape"/>
</filter>
<clipPath id="clip0_2213_1895">
<rect width="500" height="500" fill="white"/>
</clipPath>
</defs>
<title xmlns=""/></svg>